<?xml version="1.0" encoding="UTF-8" standalone="no"?>
<!-- Created with Inkscape (http://www.inkscape.org/) -->

<svg
   xmlns:dc="http://purl.org/dc/elements/1.1/"
   xmlns:cc="http://creativecommons.org/ns#"
   xmlns:rdf="http://www.w3.org/1999/02/22-rdf-syntax-ns#"
   xmlns:svg="http://www.w3.org/2000/svg"
   xmlns="http://www.w3.org/2000/svg"
   xmlns:xlink="http://www.w3.org/1999/xlink"
   xmlns:sodipodi="http://sodipodi.sourceforge.net/DTD/sodipodi-0.dtd"
   xmlns:inkscape="http://www.inkscape.org/namespaces/inkscape"
   width="256"
   height="256"
   viewBox="0 0 256 256"
   id="svg2"
   version="1.1"
   inkscape:version="0.91 r13725"
   sodipodi:docname="tower_of_activists.svg"
   inkscape:export-filename="/Users/phuong/Documents/workspace/lordofdunans/assets/images/towers/tower_of_activists.png"
   inkscape:export-xdpi="90"
   inkscape:export-ydpi="90">
  <defs
     id="defs4">
    <linearGradient
       inkscape:collect="always"
       id="linearGradient4720">
      <stop
         style="stop-color:#f700f5;stop-opacity:1"
         offset="0"
         id="stop4722" />
      <stop
         id="stop4747"
         offset="0.5"
         style="stop-color:#ffe002;stop-opacity:1" />
      <stop
         style="stop-color:#17fe00;stop-opacity:1"
         offset="1"
         id="stop4724" />
    </linearGradient>
    <linearGradient
       inkscape:collect="always"
       xlink:href="#linearGradient4720"
       id="linearGradient4726"
       x1="25.285402"
       y1="923.23162"
       x2="234.82774"
       y2="923.23162"
       gradientUnits="userSpaceOnUse" />
  </defs>
  <sodipodi:namedview
     id="base"
     pagecolor="#ffffff"
     bordercolor="#666666"
     borderopacity="1.0"
     inkscape:pageopacity="0.0"
     inkscape:pageshadow="2"
     inkscape:zoom="0.98994949"
     inkscape:cx="177.89708"
     inkscape:cy="150.60194"
     inkscape:document-units="px"
     inkscape:current-layer="layer1"
     showgrid="false"
     units="px"
     inkscape:window-width="1280"
     inkscape:window-height="707"
     inkscape:window-x="0"
     inkscape:window-y="1"
     inkscape:window-maximized="1" />
  <metadata
     id="metadata7">
    <rdf:RDF>
      <cc:Work
         rdf:about="">
        <dc:format>image/svg+xml</dc:format>
        <dc:type
           rdf:resource="http://purl.org/dc/dcmitype/StillImage" />
        <dc:title />
      </cc:Work>
    </rdf:RDF>
  </metadata>
  <g
     inkscape:label="Layer 1"
     inkscape:groupmode="layer"
     id="layer1"
     transform="translate(0,-796.36216)">
    <g
       id="g4714"
       style="fill:url(#linearGradient4726);fill-opacity:1">
      <path
         inkscape:connector-curvature="0"
         d="m 25.701613,1009.0557 c 0.198668,-6.4167 0.366513,-12.80079 1.04943,-19.18899 2.038382,-11.35895 4.581884,-22.62037 6.988143,-33.9057 2.248864,-11.34968 4.580744,-22.68905 7.355501,-33.92311 1.752624,-6.62375 3.732828,-13.20288 6.502038,-19.47767 2.671719,-4.98135 6.384124,-9.27684 9.746704,-13.78787 3.862343,-5.27971 7.892249,-10.45087 11.563024,-15.86809 1.851297,-2.78654 3.635592,-5.63084 5.180245,-8.60061 0.550856,-0.9988 0.918207,-2.03536 1.069737,-3.16121 0.05835,-0.96181 0.05939,-1.92882 0.0147,-2.89131 0.288899,-0.11531 -0.336574,-0.58275 -0.458818,-0.76035 -0.37988,-0.68032 -1.010933,-0.9529 -1.591322,-1.40326 -0.624678,-0.48438 -1.255913,-0.82196 -1.837785,-1.3517 -0.415197,-0.23619 -0.91691,-0.49416 -1.404435,-0.42769 -0.604133,0.0254 -1.210602,0.0491 -1.814698,0.0262 -1.051973,-0.0724 -1.677123,0.48508 -2.141187,1.40806 30.112381,-29.43047 12.047549,-15.83605 10.741187,-10.70128 -0.197443,0.77607 -0.206411,1.27025 -0.273267,2.06254 -0.247118,3.3224 -0.2985,6.65637 0.103822,9.96515 0.75766,5.06566 2.240021,9.97311 3.547312,14.91267 2.62898,10.9314 5.998578,21.64703 9.372135,32.36415 5.417996,17.02517 11.529431,33.81921 18.092111,50.4336 4.66938,10.76878 9.1577,21.8395 16.10172,31.38496 2.97631,3.4109 5.97381,6.0201 10.48818,6.8384 1.88943,0.217 3.79756,0.1148 5.68222,-0.097 3.42338,-4.3404 13.0576,-13.48668 -11.25027,11.67421 -0.26661,0.276 0.5226,-0.5705 0.83733,-0.79 0.26204,-0.5659 0.30798,-1.1436 0.34248,-1.7534 0.0831,-0.2815 0.0896,-0.1564 0.0351,-0.3741 0,0 12.71311,-12.84451 12.71311,-12.84451 l 0,0 c 0.43203,0.64 0.22034,0.2939 0.62476,1.0448 0.0423,0.7295 0.10448,1.468 -0.0292,2.1872 0.0632,0.6183 0.0565,0.9192 -0.3891,1.3888 -0.39382,0.415 -7.68977,13.15851 -14.04869,13.57611 -1.98058,0.015 -3.97474,0.01 -5.914,-0.4585 -4.60718,-1.3684 -8.06015,-4.4385 -10.90306,-8.27441 C 105.25912,988.10521 101.11532,976.6747 96.531402,965.5378 90.123741,948.88581 84.140678,932.08592 78.155048,915.27883 74.431268,904.89238 70.761665,894.49146 67.640849,883.90351 66.175795,878.998 64.698499,874.10037 63.68995,869.0749 c -0.594491,-3.33417 -0.609859,-6.66811 -0.571007,-10.04854 0.417502,-9.43785 1.594735,-6.06189 12.935866,-18.13544 1.056982,-0.54538 2.097818,-0.75796 3.290082,-0.64175 0.710391,-0.0266 1.425313,-0.003 2.121864,0.15457 0.764032,0.26963 1.497216,0.59659 2.133012,1.11236 0.490596,0.4648 1.150115,0.72948 1.643207,1.20315 0.678538,0.41273 1.347704,0.86331 1.79466,1.53314 0.568529,0.52174 1.010649,1.18283 1.466557,1.83294 -0.01672,0.99967 0.02826,1.99972 0.03992,2.99919 0.0289,1.32385 -0.08396,2.64194 -0.719241,3.83408 -1.539723,3.21018 -3.532719,6.17334 -5.49297,9.14395 -2.367637,3.58586 -5.049577,6.89342 -7.531162,10.39441 -0.671977,0.94802 -1.277342,1.94268 -1.963087,2.88079 -0.686328,0.9389 -1.433923,1.83145 -2.150884,2.74718 -3.19741,4.49591 -6.758357,8.71615 -9.753016,13.35453 -3.058474,6.34788 -5.410456,12.98558 -7.315152,19.76864 -3.044889,11.28714 -5.45061,22.72171 -7.765911,34.17807 -2.266576,11.08701 -4.611595,22.1625 -6.5618,33.31035 -0.642879,6.09492 -0.847767,12.18739 -0.342734,18.30579 0,0 -13.246538,12.05339 -13.246538,12.05339 z"
         id="path4688"
         style="opacity:0.98999999;fill:url(#linearGradient4726);fill-opacity:1;stroke:none;stroke-width:5.5999999;stroke-linecap:round;stroke-linejoin:round;stroke-miterlimit:4;stroke-dasharray:none;stroke-opacity:1" />
      <path
         inkscape:connector-curvature="0"
         d="m 36.532068,923.11463 c 3.784677,0.18534 7.579278,0.23656 11.368742,0.23966 6.008136,0.13229 12.018827,-0.0438 18.023579,0.20859 5.883794,0.73172 11.594228,2.49961 17.119308,4.60279 4.445413,1.50814 8.84538,3.2107 13.407865,4.32975 3.684818,1.12489 7.503068,1.52066 11.328548,1.76559 2.74958,0.12788 5.46903,0.26288 8.16146,-0.33972 0.86851,-0.0771 1.27829,-0.71241 1.98697,-1.12605 0.16679,-0.0974 0.63076,-0.43618 0.49824,-0.2957 -18.99285,20.13387 -15.6731,16.50765 -11.68112,12.14112 0.13829,-0.18174 0.79423,-0.90053 0.86392,-0.39181 0,0 11.98705,-13.53195 11.98705,-13.53195 l 0,0 c 0.84774,0.60315 1.78704,1.52272 1.21791,2.63127 -3.31173,5.83605 -8.5928,13.44942 -15.80426,14.6913 -2.76886,0.31726 -5.560972,0.006 -8.334259,-0.12068 -3.884082,-0.30979 -7.760773,-0.89792 -11.484456,-2.07805 -4.568308,-1.24877 -9.019045,-2.91844 -13.459015,-4.55843 -5.365542,-2.01822 -10.862675,-3.89434 -16.618075,-4.33612 -6.021567,-0.22683 -12.05184,-0.0668 -18.076328,-0.0331 -3.917601,0.003 -7.839454,0.0601 -11.752745,0.23966 0,0 11.246666,-14.03814 11.246666,-14.03814 z"
         id="path4690"
         style="opacity:0.98999999;fill:url(#linearGradient4726);fill-opacity:1;stroke:none;stroke-width:5.5999999;stroke-linecap:round;stroke-linejoin:round;stroke-miterlimit:4;stroke-dasharray:none;stroke-opacity:1" />
      <path
         inkscape:connector-curvature="0"
         d="m 161.04763,1002.1186 c -0.0933,-4.19529 -1.08919,-8.31599 -2.00789,-12.39159 -1.50317,-6.3439 -3.21606,-12.65038 -5.01638,-18.91898 -1.46725,-5.09436 -2.69276,-10.26556 -3.6241,-15.48489 -0.84728,-3.95205 -1.11988,-7.97591 -1.23279,-12.00534 -0.43924,-4.22926 -0.0633,-8.4837 -0.36578,-12.71476 -0.29984,-4.11919 -1.51245,-8.06514 -2.59594,-12.02444 -0.89084,-2.69682 -1.7233,-5.40026 -2.64322,-8.08362 -0.40274,-1.34041 -0.62233,-2.70099 -0.76839,-4.08564 -0.0508,-0.65786 0.0119,-1.31525 -0.001,-1.97072 -0.055,-1.45017 0.22644,-2.8089 0.65678,-4.18737 0.94203,-3.20602 1.94386,-6.41083 2.98616,-9.59098 0.61971,-2.09697 1.39513,-4.13205 2.16908,-6.17493 3.32379,-6.11668 8.96407,-10.64001 14.02875,-15.38162 0.29424,-0.0166 0.3429,-0.51407 0.61738,-0.57112 0.0373,-0.008 0.91176,0.13815 1.07003,-0.0478 0.0803,-0.0943 0.0997,-0.46011 0.0133,-0.37136 -4.09668,4.20764 -8.07336,8.53048 -12.11004,12.79571 13.05939,-16.17349 6.86261,-11.69992 13.31602,-13.38123 0.38371,-0.1 0.80988,0.0259 1.20649,-0.0459 0.96201,0.0695 1.9276,0.0271 2.89169,0.0668 1.6635,0.0211 3.32699,0.0451 4.99071,0.0627 2.17888,-0.005 4.35719,0.019 6.53615,0.005 2.28309,-0.0262 4.56581,0.037 6.84879,0.0147 2.35658,-0.01 4.71222,0.005 7.06898,-0.007 2.37228,0.0246 4.74475,0.006 7.11707,-0.004 2.02764,0.0179 4.04041,-0.13081 6.02465,-0.55524 0.95093,-0.48425 2.04411,-0.28824 3.03788,-0.48789 1.03518,-0.20796 1.95442,-0.60935 3.02236,-0.75656 0.81991,-0.35619 1.87626,0.0372 2.69477,-0.235 0.22433,-0.0746 0.33858,-0.34805 0.55653,-0.43965 0.22821,-0.0959 1.65934,-0.28248 1.8758,-0.31321 0.98109,0.067 1.70581,-0.48131 2.55201,-0.80215 0.83336,-0.31597 1.71859,-0.50582 2.5594,-0.84366 0.71482,-0.59593 1.70311,-0.38883 2.50304,-0.69227 0.88279,-0.33489 1.04756,-0.65053 2.07914,-0.79937 0.70964,-0.38458 1.74813,0.0555 2.45215,-0.23931 0.11375,-0.0476 0.15127,-0.19481 0.2269,-0.29221 0.18525,-0.0477 0.37051,-0.0955 0.55577,-0.14319 0.3193,-0.47153 0.92214,-0.24232 1.29812,-0.42304 0.53753,-0.25838 -0.26581,-0.58629 1.18974,-0.30583 0,0 -11.12223,14.2045 -11.12223,14.2045 l 0,0 c -0.61348,0.52719 -1.39963,0.65127 -2.18105,0.90693 -1.03041,0.38778 -2.22214,0.13632 -3.26791,0.58878 -1.44975,0.62247 -2.99622,0.90895 -4.43734,1.56114 -1.74545,0.57829 -3.47476,1.21995 -5.31135,1.44893 -0.56671,0.1474 -1.10793,0.38646 -1.6784,0.51854 -1.12705,0.26093 -2.33344,0.13294 -3.45724,0.43588 -2.02633,0.4681 -4.06854,0.82474 -6.10321,1.25246 -2.06176,0.24593 -4.13682,0.3837 -6.21406,0.32207 -2.37034,-0.009 -4.74082,-0.0283 -7.11112,-0.004 -2.3528,-0.0123 -4.7045,0.002 -7.05711,-0.007 -2.29085,-0.0228 -4.58146,0.0413 -6.87241,0.0147 -2.18137,-0.0143 -4.36215,0.0104 -6.54343,0.002 -1.6935,0.0153 -3.38674,0.0352 -5.08009,0.0488 -0.91038,0.0344 -1.84609,-0.0277 -2.73571,0.18621 -0.48203,0.0608 -1.00312,0.36727 -1.24916,0.76608 4.01095,-4.27422 8.0219,-8.54846 12.03285,-12.82269 -4.15678,4.40438 -8.23129,8.88789 -12.47036,13.21313 -0.11444,0.11677 -0.32693,0.007 -0.49039,0.0111 -0.0956,0.0422 -0.21772,0.0481 -0.28679,0.12651 -0.24336,0.27622 -0.29288,0.72917 -0.70856,0.89748 -5.92498,5.74085 16.41905,-17.67757 9.98541,-10.80929 -1.2754,1.43957 -1.91937,4.30793 -2.55369,6.11132 -1.31392,2.98786 -1.8042,6.25201 -3.10912,9.25084 -0.0236,0.43416 0.0258,0.87855 -0.0709,1.30249 -0.0576,0.25264 -0.27683,0.44039 -0.38041,0.6779 -0.25528,0.58529 -0.17343,1.17231 -0.16046,1.7882 -0.033,0.64862 -0.014,1.29836 -0.0639,1.94931 -0.0914,1.30438 0.0216,2.61053 0.25858,3.89549 0.57251,2.34201 -0.15859,-0.40241 0.75941,2.20376 0.70379,1.99805 0.78911,4.18603 1.74526,6.10936 0.95634,4.07833 2.39322,8.04611 2.73055,12.25811 0.53456,4.24925 -0.0684,8.53835 0.4526,12.79839 0.13125,3.97131 0.32393,7.94568 1.01531,11.86716 0.89393,5.2153 1.82856,10.44338 3.33276,15.52392 0.85209,3.12638 1.58161,6.28398 2.43178,9.41 0.59573,2.19046 1.37202,4.32942 1.9583,6.52242 0.26607,0.99526 0.44863,2.01099 0.67294,3.01648 0.47897,1.78646 1.09005,3.53802 1.50956,5.33938 0.52619,2.25946 0.66597,4.62336 1.32653,6.86056 0,0 -13.27539,12.07971 -13.27539,12.07971 z"
         id="path4710"
         style="opacity:0.98999999;fill:url(#linearGradient4726);fill-opacity:1;stroke:none;stroke-width:5.5999999;stroke-linecap:round;stroke-linejoin:round;stroke-miterlimit:4;stroke-dasharray:none;stroke-opacity:1" />
      <path
         inkscape:connector-curvature="0"
         d="m 164.37531,924.63186 c 1.1567,-0.13903 2.33528,-0.25329 3.40591,-0.75166 1.99782,-0.92998 -0.83297,-0.0983 1.36928,-0.66326 1.49291,-0.26135 1.59141,-1.11013 3.20846,-1.19009 0.59848,-0.0496 1.05773,-0.6185 1.57323,-0.79957 0.25222,-0.0886 0.53537,-0.0379 0.79611,-0.0968 0.61373,-0.13876 0.89271,-0.34054 1.4465,-0.63893 1.2456,0.11894 2.26041,-0.50896 3.39087,-0.84826 1.09014,-0.3272 2.249,-0.36704 3.3537,-0.65418 0.35075,-0.0802 0.7015,-0.16041 1.05226,-0.24061 0.43386,-0.049 0.87451,-0.0563 1.3016,-0.14709 0.36762,-0.0781 0.70332,-0.27236 1.06953,-0.35687 1.06205,-0.2451 2.21034,-0.1861 3.29217,-0.22223 1.89105,0.16194 3.67522,-0.11046 5.51208,-0.5147 1.83279,-0.18381 3.56498,-0.58547 5.40406,-0.57315 0.86207,-0.0929 1.7754,0.17216 2.63446,0.062 0.56692,-0.0727 1.23662,-0.39809 1.78337,-0.57848 0.94895,-0.26013 1.90787,-0.35089 2.88305,-0.42551 0.20242,-0.48585 0.68661,-0.23209 1.09093,-0.1763 0,0 -11.2655,14.14692 -11.2655,14.14692 l 0,0 c -0.40866,0.1448 -0.45501,0.36763 -0.99833,0.23603 -0.87939,0.0934 -1.73921,0.32246 -2.59544,0.53752 -1.55232,0.30267 -3.09137,0.17821 -4.66583,0.19993 -1.74315,0.14806 -3.47485,0.49469 -5.20602,0.74679 -1.88912,0.28777 -3.76911,0.34474 -5.67922,0.32655 -2.18732,0.12759 -4.31337,0.68004 -6.45082,1.13651 -2.20923,0.42267 -4.39163,1.02132 -6.51143,1.76144 -1.38284,0.48982 -2.70679,1.09192 -4.13546,1.44079 -0.96815,0.53767 -1.91871,1.01621 -3.01799,1.26008 -1.48346,0.73787 -3.18625,0.79565 -4.63759,1.58414 0,0 10.59606,-14.56096 10.59606,-14.56096 z"
         id="path4712"
         style="opacity:0.98999999;fill:url(#linearGradient4726);fill-opacity:1;stroke:none;stroke-width:5.5999999;stroke-linecap:round;stroke-linejoin:round;stroke-miterlimit:4;stroke-dasharray:none;stroke-opacity:1" />
    </g>
  </g>
</svg>
