<?xml version="1.0" encoding="UTF-8" standalone="no"?>
<!-- Created with Inkscape (http://www.inkscape.org/) -->

<svg
   xmlns:dc="http://purl.org/dc/elements/1.1/"
   xmlns:cc="http://creativecommons.org/ns#"
   xmlns:rdf="http://www.w3.org/1999/02/22-rdf-syntax-ns#"
   xmlns:svg="http://www.w3.org/2000/svg"
   xmlns="http://www.w3.org/2000/svg"
   xmlns:sodipodi="http://sodipodi.sourceforge.net/DTD/sodipodi-0.dtd"
   xmlns:inkscape="http://www.inkscape.org/namespaces/inkscape"
   width="1200"
   height="400"
   viewBox="0 0 1200 400"
   id="svg2"
   version="1.1"
   inkscape:version="0.91 r13725"
   sodipodi:docname="us.svg">
  <defs
     id="defs4" />
  <sodipodi:namedview
     id="base"
     pagecolor="#ffffff"
     bordercolor="#666666"
     borderopacity="1.0"
     inkscape:pageopacity="0.0"
     inkscape:pageshadow="2"
     inkscape:zoom="0.49497475"
     inkscape:cx="465.19584"
     inkscape:cy="291.42857"
     inkscape:document-units="px"
     inkscape:current-layer="layer1"
     showgrid="false"
     units="px"
     inkscape:window-width="1280"
     inkscape:window-height="707"
     inkscape:window-x="0"
     inkscape:window-y="1"
     inkscape:window-maximized="1" />
  <metadata
     id="metadata7">
    <rdf:RDF>
      <cc:Work
         rdf:about="">
        <dc:format>image/svg+xml</dc:format>
        <dc:type
           rdf:resource="http://purl.org/dc/dcmitype/StillImage" />
        <dc:title></dc:title>
      </cc:Work>
    </rdf:RDF>
  </metadata>
  <g
     inkscape:label="Layer 1"
     inkscape:groupmode="layer"
     id="layer1"
     transform="translate(0,-652.36223)">
    <g
       id="g4168"
       style="fill:#fc0065;fill-opacity:1">
      <path
         inkscape:connector-curvature="0"
         d="m 221.90041,767.39521 c -6.5863,-1.67634 -12.97599,-4.29795 -18.99768,-7.44419 -7.48319,-3.34578 -15.09886,-6.347 -22.50823,-9.85269 -7.29787,-2.88687 -14.50141,-6.05069 -21.37532,-9.84477 -6.43841,-3.29156 -13.15234,-6.13275 -20.15653,-7.9914 -3.99262,-0.99139 -8.10187,-1.38617 -12.20824,-1.33928 -0.48861,-0.003 -1.0076,-0.17844 -1.46584,-0.009 -1.10804,0.41011 -3.89632,4.32894 -4.76279,5.30886 7.614,-8.15097 15.19214,-16.3356 22.842,-24.45292 0.36548,-0.38781 -0.69169,0.81435 -0.98439,1.25966 -1.362,2.07221 -2.29504,4.32964 -3.76886,6.34788 -1.53834,3.20568 -2.83793,6.50128 -4.64883,9.57551 -1.81914,4.06341 -3.28577,8.25736 -4.99614,12.36596 -1.70443,3.99188 -3.22704,8.0541 -4.5658,12.18264 -1.36685,4.2883 -1.73918,8.77748 -1.93064,13.24653 -0.3768,5.07839 -0.0796,10.11071 0.58976,15.1466 1.0652,4.25163 2.23897,8.47409 4.23342,12.39219 1.19402,2.86305 3.36312,4.45249 5.69892,6.29831 2.64989,1.49096 5.41224,2.73147 8.24556,3.85158 4.46171,1.83427 9.1286,3.06561 13.62766,4.83014 6.76015,2.79131 13.35358,5.87347 19.872,9.19345 8.214,4.52898 15.48959,10.51479 22.33459,16.87721 6.36485,5.83382 11.97372,12.39921 17.12112,19.31227 3.68427,5.7703 7.23236,11.61765 10.63371,17.55891 2.82456,4.7447 5.28064,9.68724 7.70553,14.64304 2.12343,4.67247 2.54615,9.80666 2.94347,14.85394 1.74981,16.18399 -12.9102,29.46347 -27.51153,36.31653 -5.56103,2.58963 -11.73998,2.84692 -17.7449,3.64959 -6.72955,1.0909 -13.34182,2.82675 -20.06204,3.92697 -6.60478,1.56751 -13.22753,3.05408 -19.82807,4.63319 -6.23011,1.91306 -12.38689,4.09873 -18.78925,5.35787 -6.55906,1.79484 -11.61773,0.78016 -17.65925,-1.92793 -4.97398,-2.87332 -10.11339,-5.61183 -14.384835,-9.48916 -3.031672,-2.72048 -5.914,-5.57045 -7.795742,-9.21018 0,0 25.436437,-25.21733 25.436437,-25.21733 l 0,0 c 1.29243,3.41139 4.04657,5.86881 6.61278,8.37073 3.92601,3.63179 8.5701,6.35987 13.30932,8.80424 6.0563,2.20836 9.60842,2.22375 15.94501,0.62953 6.28378,-1.59732 12.43265,-3.68275 18.71031,-5.30949 6.66673,-1.53638 13.28578,-3.27112 20.003,-4.5775 6.70543,-1.36851 13.42031,-2.68709 20.16766,-3.83468 5.79113,-0.88158 11.78117,-1.34298 16.67661,-4.91506 9.73367,-9.34051 0.44943,-0.50055 -21.02191,23.43023 -0.37237,0.41503 0.94676,-0.6529 1.23101,-1.1326 0.92675,-1.56393 0.19689,-3.69036 0.41642,-5.36336 -0.0608,-4.71507 -0.25701,-9.51581 -1.86594,-13.99805 -2.11318,-5.00361 -4.93508,-9.71456 -7.42289,-14.54766 -3.15183,-5.94256 -6.76137,-11.61894 -10.15357,-17.42119 -4.86144,-6.85351 -10.23307,-13.38875 -16.5,-19.01619 -6.51443,-6.22085 -13.58344,-11.99221 -21.62439,-16.13855 -6.50819,-3.18208 -13.13553,-6.05606 -19.94909,-8.52588 -4.60496,-1.60873 -9.24825,-3.0968 -13.84537,-4.72101 -3.16584,-1.28608 -6.31355,-2.59217 -9.1918,-4.46291 -2.53255,-2.20151 -5.30944,-4.05533 -6.4735,-7.39217 -2.532572,-4.20323 -3.47397,-8.88836 -5.0479,-13.50105 -0.6502,-5.16252 -1.501028,-10.26831 -1.075223,-15.49817 0.141449,-4.66202 0.239343,-9.32328 1.279821,-13.89488 0.579088,-2.05817 1.088039,-4.32223 1.824811,-6.31813 0.778317,-2.10843 2.199421,-4.01667 2.457831,-6.33382 2.12052,-3.88731 2.94004,-8.1719 5.07672,-12.02574 0.67979,-3.20421 1.48818,-2.48989 2.34607,-4.89377 0.23797,-0.66681 0.0993,-1.44864 0.4126,-2.08354 2.78008,-5.63357 -0.36403,4.21863 1.66321,-2.87181 0.87801,-2.77581 1.57896,-2.48663 2.853,-4.84461 7.75271,-14.34867 -12.10237,-1.4897 26.65092,-30.8215 2.59171,-2.50266 4.9421,-4.07792 8.71983,-3.53392 4.23051,0.42873 8.45973,0.9014 12.50168,2.33052 7.11717,2.27731 13.98382,5.24787 20.64617,8.62883 6.76535,3.81018 13.97049,6.73221 21.12182,9.73468 7.4853,3.39076 15.00162,6.7042 22.5492,9.95472 5.7195,2.69672 11.93705,5.55865 18.34984,5.66736 0,0 -22.49333,28.07626 -22.49333,28.07626 z"
         id="path4138"
         style="opacity:0.98999999;fill:#fc0065;fill-opacity:1;stroke:none;stroke-width:5.5999999;stroke-linecap:round;stroke-linejoin:round;stroke-miterlimit:4;stroke-dasharray:none;stroke-opacity:1" />
      <path
         inkscape:connector-curvature="0"
         d="m 317.73832,729.24786 c 6.43396,0.29054 12.87865,0.30911 19.31815,0.2847 6.88828,-0.14274 13.81312,0.29779 20.67656,-0.37323 5.81267,-0.81305 11.65892,-1.30021 17.51733,-1.62068 4.73361,-0.22928 9.47385,-0.21359 14.21163,-0.21312 5.35405,-0.0101 10.70757,0.0892 16.06157,0.0945 7.03094,0.0474 14.06189,0.0884 21.09296,0.11084 7.57348,-0.12265 15.17493,0.30734 22.72786,-0.32555 5.8972,0.20437 11.66527,-0.24872 17.49185,-1.05078 1.30436,-1.4887 3.52993,-1.25495 5.07727,-2.21897 0.43571,-0.27145 0.67508,-0.78245 1.08041,-1.09745 0.0925,-0.0719 2.01585,-1.14225 2.25225,-1.27433 0.34737,-1.83705 1.84583,-1.30873 2.716,-2.08785 1.18271,-1.05897 -0.23119,-1.37826 2.31917,-2.11192 1.30224,-2.19523 3.32943,-2.23961 5.63094,-2.48854 0.32874,0.01 0.67733,0.14275 0.98621,0.0298 0.43915,-0.16062 0.51346,-0.82666 0.91854,-1.06024 0.62078,-0.35796 1.59484,-0.51378 2.28413,-0.75521 0.69028,-0.0544 1.39638,0.088 1.99837,-0.29726 0,0 -21.97403,28.82554 -21.97403,28.82554 l 0,0 c -0.59878,-0.0298 -1.09144,0.12857 -1.58068,0.49472 -1.55846,0.65641 -2.87477,1.41615 -4.62427,1.40641 -1.87664,0.65876 -2.73525,2.4236 -4.56281,3.21025 -0.82376,1.12054 -1.29756,1.20843 -2.44535,1.97952 -0.97006,0.6517 -1.34229,1.92902 -2.7075,2.08305 -2.88034,1.65242 -5.98998,2.86797 -9.28703,3.41651 -5.78974,0.62441 -11.56192,0.45279 -17.37618,0.57351 -7.62333,0.3528 -15.25462,0.0628 -22.88388,0.15751 -7.08881,0.0218 -14.17749,0.0623 -21.2662,0.10218 -5.39543,-10e-4 -10.79052,0.0831 -16.18598,0.0764 -4.67491,0.0204 -9.35012,0.0534 -14.02106,0.26829 -5.79112,0.30559 -11.54885,0.92376 -17.31957,1.48201 -6.92688,0.34978 -13.86346,0.008 -20.7969,0.11011 -6.59167,-0.0251 -13.18778,0.003 -19.7743,0.28469 0,0 22.44454,-28.01538 22.44454,-28.01538 z"
         id="path4140"
         style="opacity:0.98999999;fill:#fc0065;fill-opacity:1;stroke:none;stroke-width:5.5999999;stroke-linecap:round;stroke-linejoin:round;stroke-miterlimit:4;stroke-dasharray:none;stroke-opacity:1" />
      <path
         inkscape:connector-curvature="0"
         d="m 409.28405,726.29702 c -0.34316,6.37778 -0.28607,12.77311 -0.25742,19.15847 -0.0867,8.04102 -0.0731,16.08238 -0.11249,24.12352 0.14789,8.5838 -0.0501,17.14345 -0.78473,25.69607 -0.47913,6.97959 -1.91875,13.85568 -3.10076,20.74366 -1.00968,5.96497 -3.05693,11.70841 -4.88109,17.46507 -2.16701,4.93366 -3.91103,10.03421 -6.03382,14.98481 -1.97254,5.0498 -4.42561,9.86186 -6.1036,15.02021 -1.57876,4.32327 -2.19619,8.89411 -3.20572,13.35939 -0.96324,4.65791 -1.53278,9.30087 -2.78711,13.89534 -0.88961,3.54472 -0.86255,7.20433 -1.77687,10.73819 -1.11484,1.9055 -1.14652,4.01217 -1.46829,6.12354 -0.59861,1.58458 -1.13245,3.16409 -1.51579,4.80575 0.15311,1.90171 -0.45668,3.30583 -1.77257,4.68464 -0.43294,1.20279 -0.39045,2.43826 -0.49127,3.692 0,0 -27.9486,22.91719 -27.9486,22.91719 l 0,0 c 1.36531,-0.73153 1.04957,-1.5401 1.22171,-2.9488 -0.1257,-1.20688 0.0612,-2.73276 1.27866,-3.46617 0.204,-0.12289 0.55261,0.0708 0.70568,-0.11163 0.1636,-0.19499 0.0188,-0.50872 0.0282,-0.76308 0.0238,-1.96247 0.41617,-3.64955 0.97207,-5.51943 1.37999,-2.00022 0.73438,-4.12882 1.4895,-6.37303 2.13012,-3.17222 1.73276,-6.79477 2.37447,-10.41927 0.45289,-2.22138 1.41189,-4.27736 1.84483,-6.48297 0.47697,-2.4299 0.2771,-4.97332 0.8998,-7.38564 1.1497,-4.55843 1.80046,-9.17259 3.11707,-13.70688 0.88271,-2.53229 1.35392,-5.38193 2.52538,-7.79645 0.38411,-0.79169 1.03472,-1.4329 1.42945,-2.21935 0.15453,-0.30788 1.82281,-4.89778 1.92561,-5.17882 2.1155,-4.99225 4.12797,-10.01876 6.20709,-15.01864 1.42022,-2.90329 1.76417,-5.47164 2.80177,-8.48708 0.72897,-2.1185 1.46693,-3.47173 2.04379,-5.6523 0.24854,-0.9395 0.36132,-1.90977 0.54198,-2.86466 0.67917,-3.29745 1.13459,-6.57907 1.67688,-9.89483 0.37008,-2.26286 1.22086,-4.42982 1.58543,-6.69359 0.21626,-1.34281 0.19141,-2.71349 0.28712,-4.07024 0.7038,-8.50957 1.48022,-16.97684 1.04507,-25.53431 -0.0394,-7.9729 -0.0253,-15.94603 -0.11249,-23.91881 0.0277,-6.22884 0.0967,-12.46961 -0.25742,-18.69 0,0 26.6085,-24.21187 26.6085,-24.21187 z"
         id="path4142"
         style="opacity:0.98999999;fill:#fc0065;fill-opacity:1;stroke:none;stroke-width:5.5999999;stroke-linecap:round;stroke-linejoin:round;stroke-miterlimit:4;stroke-dasharray:none;stroke-opacity:1" />
      <path
         inkscape:connector-curvature="0"
         d="m 564.84754,716.19549 c -0.10469,7.41222 -0.38844,14.70549 -1.65939,22.01866 -2.06723,9.48015 -4.98064,18.7227 -8.2055,27.86147 -2.39352,8.24443 -5.05614,16.40676 -7.47794,24.64081 -2.58012,8.4152 -5.24324,16.78898 -8.10893,25.11204 -2.29689,6.98239 -5.65436,13.54876 -9.18672,19.97304 -2.58211,5.28064 -4.75056,10.74128 -6.90251,16.20556 -1.78136,4.2343 -3.4158,8.53226 -5.26738,12.73679 -1.03817,3.88495 -2.23977,7.68513 -3.49841,11.50859 -1.10513,3.22709 -2.15858,6.44016 -2.4294,9.84552 -0.3044,3.67892 -0.94556,7.34021 -1.7595,10.93997 -0.55944,4.62155 -1.29879,9.23344 -2.29495,13.78287 -0.88665,3.42269 -1.88222,6.81298 -2.85554,10.21171 -0.10331,0.47824 -0.16884,0.96624 -0.30993,1.43473 -0.79053,2.62493 0.0249,-0.94836 -0.65952,1.62783 -0.24953,0.93919 3.8e-4,1.73985 -0.28223,2.69034 -0.0365,0.95782 -0.9664,1.65317 -1.08699,2.56185 -0.045,0.33892 0.10569,0.69847 0.006,1.02565 -0.0403,0.13304 -0.24909,0.12351 -0.37364,0.18527 0,0 -27.61626,23.40869 -27.61626,23.40869 l 0,0 c -0.0645,-1.88025 -0.24512,0.14257 0.70058,-0.92508 0.52769,-0.59574 -0.17439,-2.45521 0.79933,-2.96364 0.11671,-0.23693 0.17805,-0.51044 0.35013,-0.71081 0.14713,-0.17131 0.48997,-0.15255 0.57203,-0.36293 0.53537,-1.37246 -0.8134,-3.29839 0.80191,-4.444 0.68011,-3.53085 1.94136,-6.94714 3.04546,-10.34525 0.34114,-1.41324 0.80053,-2.79931 1.07399,-4.22718 0.4606,-2.40499 0.077,-2.26224 0.67126,-4.67529 0.17937,-0.72841 0.60976,-1.39011 0.72044,-2.13207 0.11992,-0.8039 -0.0258,-1.62539 -0.0387,-2.43808 0.22018,-3.57127 1.4333,-7.06066 1.92614,-10.62994 0.0108,-1.74782 -0.18013,-4.02054 0.18717,-5.71292 0.1107,-0.51006 0.55099,-0.89683 0.71889,-1.39102 0.39892,-1.17419 0.29669,-2.48608 0.8916,-3.61188 0.2402,-0.63453 1.20571,-3.15019 1.38024,-3.75866 0.19237,-0.67067 0.18879,-1.39721 0.45,-2.04418 0.22428,-0.55552 0.78555,-0.93904 0.98283,-1.50471 0.47635,-1.36586 0.0411,-2.94832 0.72412,-4.27877 1.99109,-6.66897 -0.82295,2.15075 1.74314,-4.08021 0.29786,-0.72325 0.33302,-1.53584 0.62258,-2.26245 0.89605,-2.24849 2.43535,-4.28118 2.8478,-6.74075 1.82387,-3.37382 2.73069,-7.08287 4.32406,-10.56815 0.42719,-0.93443 1.06949,-1.76234 1.4761,-2.7059 0.4553,-1.05655 0.73317,-2.18101 1.09976,-3.27152 3.60462,-6.37963 7.31505,-12.77062 9.73925,-19.71409 3.18661,-8.19983 5.48001,-16.65183 8.40978,-24.93579 0.99447,-4.28655 2.56164,-8.15694 3.81449,-12.34726 1.23646,-4.13552 2.0168,-8.42916 3.51756,-12.49715 1.43715,-4.37029 3.35529,-8.60281 4.62777,-13.02236 0.46041,-1.59908 0.69694,-3.25695 1.15545,-4.85658 3.54292,-12.36052 -0.24957,3.09949 2.71579,-9.52495 0.50027,-2.80387 1.38802,-5.54537 1.67135,-8.37939 0.41125,-4.11362 -0.4506,-8.37115 -0.36256,-12.49656 0,0 26.6085,-24.21187 26.6085,-24.21187 z"
         id="path4144"
         style="opacity:0.98999999;fill:#fc0065;fill-opacity:1;stroke:none;stroke-width:5.5999999;stroke-linecap:round;stroke-linejoin:round;stroke-miterlimit:4;stroke-dasharray:none;stroke-opacity:1" />
      <path
         inkscape:connector-curvature="0"
         d="m 566.86784,722.25641 c -0.18169,5.16685 -0.21002,10.34075 -0.21651,15.51087 -0.24002,7.22982 0.21681,14.42234 0.9882,21.60413 0.39238,7.69967 2.28055,15.18369 3.89728,22.68768 1.05298,6.2603 3.08988,12.25746 4.78161,18.35959 1.17026,4.52365 2.85339,8.88533 4.65956,13.1858 0.89649,3.39743 2.71549,6.41096 4.165,9.58162 1.10231,2.89441 2.85969,5.44844 4.26101,8.18514 1.12845,3.2134 2.47081,6.2964 3.26115,9.6155 0.18917,3.35473 1.56101,6.39674 2.08644,9.69146 0.55635,3.14263 1.45732,6.22725 2.31054,9.31008 0.90396,4.45779 2.42584,8.73759 3.62455,13.11747 1.46306,5.85187 3.18357,11.63329 4.60172,17.50762 1.427,5.24018 2.96253,10.414 4.75148,15.5415 1.03392,2.8509 2.07393,5.79766 3.78451,8.32531 1.00295,1.87859 2.65342,3.2019 3.88072,4.90696 0.47901,0.51299 0.80043,1.13814 1.11822,1.75599 0,0 -25.91363,25.27015 -25.91363,25.27015 l 0,0 c -0.0573,-0.59038 -0.006,-0.78118 -0.48466,-1.29114 -0.82667,-1.83191 -2.90932,-2.88769 -3.64576,-4.81817 -2.03176,-2.7295 -3.21147,-6.07015 -4.24139,-9.29836 -0.86019,-2.37294 -1.83173,-4.8637 -2.53892,-7.27481 -0.84563,-2.88313 -0.84218,-6.0342 -2.37192,-8.7276 -1.18484,-5.92012 -3.01433,-11.52018 -4.55881,-17.30965 -1.18247,-4.36171 -2.96147,-8.49446 -3.77485,-12.93437 -0.35156,-1.23324 -0.80759,-2.43626 -1.12938,-3.6776 -0.27315,-1.0537 -0.22045,-1.94664 -0.63845,-2.96314 -0.24927,-0.60618 -0.72631,-1.10978 -0.92859,-1.73321 -0.13178,-0.40612 -0.0327,-0.85331 -0.0491,-1.27997 -0.11263,-1.44791 -0.13813,-3.07506 -0.63782,-4.45974 -0.60419,-1.67423 -1.60479,-3.14868 -1.37632,-5.03949 -0.36009,-3.24908 -1.58456,-5.92433 -2.63255,-8.97444 -1.09962,-2.92915 -3.22031,-5.3025 -4.31272,-8.26635 -1.25203,-3.31705 -3.32469,-6.32284 -4.12656,-9.785 -2.38567,-7.05235 1.57029,4.31782 -1.72952,-3.90695 -1.24851,-3.11191 -1.88743,-6.57584 -2.96768,-9.73847 -1.63743,-6.22036 -3.76774,-12.27866 -4.70713,-18.66005 -1.7151,-7.60605 -3.57618,-15.23264 -4.14811,-23.01711 -0.669,-7.21647 -1.69882,-14.39461 -1.43357,-21.67253 -0.006,-5.0387 -0.0304,-10.08172 -0.21651,-15.11685 0,0 26.60849,-24.21187 26.60849,-24.21187 z"
         id="path4146"
         style="opacity:0.98999999;fill:#fc0065;fill-opacity:1;stroke:none;stroke-width:5.5999999;stroke-linecap:round;stroke-linejoin:round;stroke-miterlimit:4;stroke-dasharray:none;stroke-opacity:1" />
      <path
         inkscape:connector-curvature="0"
         d="m 525.61247,854.47633 c 5.17003,0.32509 10.36124,0.19317 15.53947,0.1604 4.85243,0.002 9.70482,-5.3e-4 14.55735,-0.0226 4.33756,0.002 8.67423,-0.0215 13.01176,-0.0379 3.58695,-3.8e-4 7.17388,9.2e-4 10.76012,-0.0742 2.19305,0.0138 4.38602,-0.0781 6.57868,-0.065 1.43492,-0.0117 2.87088,-0.051 4.30567,-0.0218 0.90135,-0.0212 1.80195,3.1e-4 2.7033,-0.004 0,0 -22.59742,28.20619 -22.59742,28.20619 l 0,0 c -0.89933,-0.004 -1.79792,0.0175 -2.69724,-0.004 -1.42319,0.028 -2.84745,-0.009 -4.27074,-0.0218 -2.15794,0.0128 -4.31617,-0.0786 -6.47451,-0.065 -3.54657,-0.0769 -7.0939,-0.0729 -10.6412,-0.0742 -4.31729,-0.0164 -8.6337,-0.0397 -12.95102,-0.0379 -4.84044,-0.0222 -9.68073,-0.0242 -14.52107,-0.0226 -5.26424,-0.0337 -10.5396,-0.15762 -15.79648,0.1604 0,0 22.49333,-28.07627 22.49333,-28.07627 z"
         id="path4148"
         style="opacity:0.98999999;fill:#fc0065;fill-opacity:1;stroke:none;stroke-width:5.5999999;stroke-linecap:round;stroke-linejoin:round;stroke-miterlimit:4;stroke-dasharray:none;stroke-opacity:1" />
      <path
         inkscape:connector-curvature="0"
         d="m 698.12996,722.79225 c -0.20772,6.35531 -0.21767,12.71428 -0.23041,19.07236 -0.0382,8.25656 -0.0935,16.5121 -0.0786,24.7688 -0.0964,9.1833 -0.12731,18.35211 0.4271,27.52047 0.74262,9.17686 1.09469,18.37703 1.46948,27.57429 0.1108,7.60978 0.28043,15.22073 0.18498,22.83124 -0.0234,7.49138 0.0436,14.98356 0.0204,22.47467 0.0189,6.6995 0.0773,13.3998 0.0197,20.09919 0.10262,5.94999 0.0139,11.90123 0.0685,17.85099 -0.0515,5.16991 0.10895,10.34184 0.049,15.51061 0.0133,3.27596 0.16531,6.55231 0.12857,9.82772 0.0489,1.61135 0.12912,3.22792 0.0611,4.83894 0.0244,1.3298 0.0644,2.66281 0.002,3.99189 0.4481,13.25155 0.75972,0.85035 -26.7186,25.17877 0,0 26.74,-24.33152 26.74,-24.33152 l 0,0 c -31.1578,29.11671 -27.07971,36.93338 -26.7186,23.44534 -0.0678,-1.33015 -0.0166,-2.66503 0.002,-3.99623 -0.0753,-1.64756 0.0219,-3.30189 0.0611,-4.95016 -0.0384,-3.35334 0.11761,-6.70781 0.12856,-10.06169 -0.0616,-5.19846 0.10158,-10.40019 0.049,-15.59977 0.054,-5.9914 -0.0335,-11.98424 0.0685,-17.97588 -0.0582,-6.71373 0.003,-13.42843 0.0257,-20.14225 -0.0173,-7.50943 0.061,-15.01985 0.0432,-22.52956 -0.10124,-7.59617 0.0734,-15.19397 -0.10503,-22.78997 -0.0752,-9.2269 -0.40972,-18.44815 -1.15924,-27.64723 -0.71345,-9.18672 -0.84045,-18.36065 -0.72341,-27.57531 0.0148,-8.20905 -0.0399,-16.41693 -0.0786,-24.62583 -0.0125,-6.21829 -0.0181,-12.4377 -0.23041,-18.65304 0,0 26.49307,-24.10684 26.49307,-24.10684 z"
         id="path4150"
         style="opacity:0.98999999;fill:#fc0065;fill-opacity:1;stroke:none;stroke-width:5.5999999;stroke-linecap:round;stroke-linejoin:round;stroke-miterlimit:4;stroke-dasharray:none;stroke-opacity:1" />
      <path
         inkscape:connector-curvature="0"
         d="m 693.2978,721.1362 c 7.12922,0.33198 14.2713,0.442 21.40835,0.45062 11.71964,0.0988 23.41901,0.10463 35.12396,0.74944 10.30138,0.73128 20.09523,4.32032 28.97166,9.46456 7.48601,4.43409 13.44951,10.72585 18.14072,17.97955 4.36801,7.76559 7.1938,16.18069 9.24947,24.81107 1.68211,8.44637 2.64663,17.07871 2.56977,25.69391 -0.59161,4.73852 -2.05089,10.06595 -5.37098,13.72221 -24.56422,27.05141 -15.89816,20.58771 -28.91543,29.86477 -2.41584,0.61162 -4.37023,2.21338 -6.62918,3.15447 -1.13846,0.47429 -2.37,0.69254 -3.52329,1.12953 -1.08886,0.41257 -2.08881,1.0476 -3.19357,1.4155 -2.23726,0.74504 -5.23499,1.12174 -7.54048,1.48802 -4.0692,1.39927 -8.40917,1.38344 -12.59448,2.13663 -1.32024,0.23759 -2.59392,0.69538 -3.91242,0.94241 -2.43822,0.45681 -6.15272,0.78207 -8.61042,1.03213 -8.14918,1.92012 -16.50103,2.29821 -24.82257,2.7456 -5.01132,0.7254 -9.96691,1.70029 -15.0204,2.06385 -1.55371,0.4252 -3.34773,-0.0515 -4.89846,0.32086 -0.34089,0.0819 -0.57992,0.42208 -0.91883,0.51182 -0.52559,0.13916 -1.9301,-0.0624 -2.39812,-0.11131 -2.51688,-0.14967 -0.0738,-0.31854 -1.25923,0.49709 -0.25984,0.17878 -0.6881,0.0255 -0.9137,0.24589 -1.1089,1.08348 0.72895,1.42708 -2.21142,1.0717 -0.80562,0.1602 -1.5359,0.0929 -2.34088,-0.0113 0,0 22.47538,-28.24147 22.47538,-28.24147 l 0,0 c 0.57655,-0.13832 1.1569,-0.26543 1.72088,-0.45082 1.15727,-1.63341 3.20376,-1.3157 4.99395,-1.22761 2.58965,-0.41383 5.18103,-0.5405 7.81569,-0.64335 4.95012,-0.51052 9.86685,-1.36412 14.84454,-1.5889 8.22361,-0.25918 16.40365,-1.15091 24.48465,-2.72384 8.38851,-1.0809 16.74938,-2.58827 25.00528,-4.40512 6.9323,-1.59877 13.66803,-4.23363 19.57039,-8.26027 10.62867,-9.46794 2.4398,-2.3293 -18.78787,20.9186 -0.79731,0.87319 1.78707,-1.5761 2.48851,-2.52801 0.70743,-0.96003 1.11782,-2.10701 1.69565,-3.15019 0.55826,-1.00785 1.2634,-1.94137 1.71238,-3.00243 0.45438,-1.07383 0.65272,-2.23881 0.97908,-3.35822 0.53534,-8.42132 -0.27809,-16.8924 -1.75559,-25.18933 -1.8763,-8.28991 -4.45138,-16.366 -8.57021,-23.8421 -4.30968,-7.04829 -9.67651,-12.64227 -16.79197,-16.93965 -8.43531,-4.87082 -17.6915,-8.18513 -27.49165,-8.70962 -11.70407,-0.73809 -23.42027,-0.63898 -35.1421,-0.40106 -7.37784,0.009 -14.75968,0.12903 -22.13039,0.45062 0,0 22.49333,-28.07626 22.49333,-28.07626 z"
         id="path4156"
         style="opacity:0.98999999;fill:#fc0065;fill-opacity:1;stroke:none;stroke-width:5.5999999;stroke-linecap:round;stroke-linejoin:round;stroke-miterlimit:4;stroke-dasharray:none;stroke-opacity:1" />
      <path
         inkscape:connector-curvature="0"
         d="m 750.68675,831.6208 c -0.0443,5.45138 1.72783,10.83377 3.80681,15.82382 2.72039,5.96365 6.08003,11.66931 8.62174,17.71423 2.81501,6.76578 5.40918,13.59463 8.60444,20.19589 2.51048,6.43522 5.25634,12.80082 8.52619,18.88877 3.16701,4.81013 6.1788,9.7101 9.34411,14.5209 2.38889,3.52055 4.60231,7.31899 7.58711,10.37985 1.57467,1.42813 3.7161,5.07343 5.68091,5.74749 0.82466,0.94417 2.12881,1.08361 3.11023,1.76439 0.38123,0.26445 0.64329,0.68747 1.04531,0.91911 0.3334,0.1921 0.77095,-0.004 1.15386,0.0337 1.65184,-0.0686 3.30555,-0.32247 4.95677,-0.27795 0.72656,-0.0969 1.42577,-0.097 2.15513,-0.0565 0,0 -22.51151,28.2045 -22.51151,28.2045 l 0,0 c -0.70516,0.0644 -1.39622,0.1061 -2.10483,0.0673 -1.94376,0.17103 -3.93483,0.0784 -5.83423,-0.38623 -2.07101,-0.8634 -3.86127,-2.24505 -5.80369,-3.35777 -2.64065,-1.64997 -4.34768,-4.27933 -6.36416,-6.6243 -3.18066,-3.27803 -5.4146,-7.34778 -8.00623,-11.09912 -2.83102,-5.06926 -6.31256,-9.78571 -9.30383,-14.76693 -3.45885,-6.07149 -6.00924,-12.67224 -8.60371,-19.1448 -3.06332,-6.72274 -5.97115,-13.45407 -8.79202,-20.27647 -1.21512,-3.12049 -2.7591,-5.85867 -4.29851,-8.82373 -0.53117,-1.02308 -1.01024,-2.07238 -1.51537,-3.10857 -0.37105,-0.94246 -0.66362,-1.91972 -1.11316,-2.82737 -0.47999,-0.96914 -1.1107,-1.85604 -1.66605,-2.78405 -2.53631,-5.2192 -4.05466,-10.89406 -5.2261,-16.56685 0,0 26.55079,-24.15936 26.55079,-24.15936 z"
         id="path4158"
         style="opacity:0.98999999;fill:#fc0065;fill-opacity:1;stroke:none;stroke-width:5.5999999;stroke-linecap:round;stroke-linejoin:round;stroke-miterlimit:4;stroke-dasharray:none;stroke-opacity:1" />
      <path
         inkscape:connector-curvature="0"
         d="m 885.22678,725.17681 c 5.74275,0.34718 11.5005,0.20713 17.25047,0.26511 6.15509,0.002 12.30899,-0.0112 18.46359,-0.0836 5.17768,-0.64372 10.41572,-0.30423 15.61618,-0.18306 4.68375,0.33314 9.24351,0.0944 13.85895,-0.59986 3.71617,-0.93007 7.56685,-0.96496 11.36237,-1.31965 2.81749,-0.0306 5.63771,-0.15783 8.45444,-0.10642 2.41287,-0.0308 4.82254,-0.007 7.2351,0.0377 1.67241,-0.25787 3.44416,0.25083 5.10821,-0.0151 3.57611,-0.57147 -1.46796,-0.4064 2.66769,-0.41141 2.74798,0.14384 5.4947,0.27822 8.24483,0.37395 2.72192,0.0556 5.44517,-0.006 8.16649,0.0535 3.133,0.0487 6.2663,0.0271 9.3992,0.002 3.0715,0.0208 6.1451,0.0448 9.2164,-0.0228 3.0818,0.1106 6.1664,0.016 9.2496,0.003 2.5213,-0.0163 5.0416,-0.0124 7.5638,0.003 2.3109,-0.0487 4.6232,0.036 6.9321,-0.0544 2.2953,-0.20681 4.3102,0.89192 6.4444,1.60317 2.0356,0.44153 4.0886,0.15673 6.0014,0.98985 1.467,-0.29303 2.9348,-0.43965 4.4288,-0.50222 1.5837,-0.0696 3.1771,-0.15138 4.7619,-0.0716 1.5479,-0.0939 3.093,0.0339 4.6416,-0.0143 1.6941,0.01 3.391,-0.0187 5.0856,0.0382 2.1927,0.0376 4.3824,0.016 6.5744,-0.0293 1.2476,0.0289 2.4952,-0.0403 3.7431,-0.023 0,0 -22.6024,28.21251 -22.6024,28.21251 l 0,0 c -1.2357,0.0167 -2.471,-0.0525 -3.7063,-0.023 -2.1764,-0.0465 -4.3505,-0.0661 -6.5277,-0.0298 -1.7146,0.0542 -3.4314,0.0284 -5.1454,0.0348 -1.5315,-0.0516 -3.0593,0.0739 -4.5906,0.002 -1.5402,0.10064 -3.0826,0.0731 -4.6221,0.21558 -1.8446,0.15871 -3.6758,0.3094 -5.4488,-0.37188 -2.0643,-0.0681 -4.0965,-0.43585 -6.0697,-1.0466 -1.8542,-0.6705 -3.534,-1.07341 -5.5234,-0.83073 -2.2795,-0.0952 -4.5632,-0.002 -6.8449,-0.0544 -2.5236,0.015 -5.0454,0.019 -7.5681,0.003 -3.0848,-0.013 -6.1708,-0.10732 -9.25432,0.003 -3.05954,-0.0694 -6.12142,-0.0408 -9.18119,-0.0201 -3.13719,-0.0243 -6.27463,-0.0414 -9.41213,-0.003 -2.73659,0.0426 -5.47549,-0.043 -8.21029,-0.13787 -2.67338,-0.0527 -5.34981,-0.28118 -8.0209,-0.10005 -2.6251,0.40669 -5.29823,0.2493 -7.94557,0.23469 -2.42415,0.0392 -4.84516,0.0531 -7.26936,0.0156 -2.74157,0.0539 -5.4908,-0.0549 -8.22827,0.18734 -3.69654,0.12146 -7.33528,0.76303 -10.98925,1.28063 -4.74355,0.62163 -9.50304,0.26016 -14.27478,0.19449 -5.17519,-0.11526 -10.35883,-0.2587 -15.52365,0.19713 -6.10992,-0.0733 -12.21915,-0.0855 -18.32957,-0.0836 -5.89171,0.0585 -11.79012,-0.075 -17.67527,0.26511 0,0 22.49333,-28.07626 22.49333,-28.07626 z"
         id="path4164"
         style="opacity:0.98999999;fill:#fc0065;fill-opacity:1;stroke:none;stroke-width:5.5999999;stroke-linecap:round;stroke-linejoin:round;stroke-miterlimit:4;stroke-dasharray:none;stroke-opacity:1" />
      <path
         inkscape:connector-curvature="0"
         d="m 980.97268,726.83286 c -0.21545,6.4445 -0.19949,12.89327 -0.25928,19.34028 -0.10746,8.24343 0.005,16.48685 -0.0161,24.73011 0.0308,7.06641 0.0196,14.13228 0.1232,21.19828 0.005,5.91474 -0.0217,11.8293 0.0166,17.74399 0.0761,5.86998 -0.75356,11.70167 -1.31024,17.53473 -0.3587,5.36033 -1.4113,10.62523 -2.00564,15.95822 -0.3222,4.83566 -1.04815,9.66066 -0.95077,14.51269 0.036,3.81025 0.41789,7.6025 -0.36746,11.35574 -0.66095,2.99001 -0.93202,6.02582 -1.17554,9.07188 -0.13826,2.96446 -0.0576,5.93127 -0.10635,8.89656 0.0861,2.42597 -0.0137,4.85622 0.0607,7.28089 -0.0279,2.59584 -0.0629,5.19271 -10e-4,7.78838 -0.001,2.78571 -0.0669,5.57138 -0.0471,8.3573 0.0177,2.55806 0.009,5.11639 0.0529,7.6748 -0.0599,2.69185 -0.0668,5.38513 -0.009,8.07738 0.006,2.03945 0.0537,4.07689 -8.4e-4,6.11525 0.0318,1.55016 0.0987,3.10421 0.0331,4.65358 0.0459,1.27279 0.04,2.54665 0.027,3.81952 0.0161,1.58292 -0.0679,3.1669 -0.0153,4.74979 -0.005,1.75768 1.2e-4,3.5109 -0.0402,5.26881 0.0992,1.58109 -0.006,3.16572 0.0405,4.74607 -0.0722,0.84536 -0.0189,1.69113 0.0159,2.53613 0,0 -26.74519,24.33625 -26.74519,24.33625 l 0,0 c 0.0327,-0.85459 0.0875,-1.71028 0.0159,-2.56501 0.0451,-1.60495 -0.0565,-3.21395 0.0405,-4.81977 -0.0415,-1.73346 -0.0337,-3.46236 -0.0402,-5.19566 0.0493,-1.57379 -0.0289,-3.14816 -0.0153,-4.72191 -0.0135,-1.2893 -0.017,-2.57933 0.027,-3.8686 -0.0719,-1.56899 0.008,-3.14372 0.0331,-4.71382 -0.0573,-2.03774 -0.004,-4.07479 -8.5e-4,-6.1137 0.0558,-2.68699 0.0538,-5.37509 -0.009,-8.06159 0.0427,-2.59057 0.0356,-5.18103 0.053,-7.77124 0.0194,-2.75725 -0.0457,-5.51427 -0.0471,-8.2713 0.0588,-2.59237 0.0288,-5.18586 -0.005,-7.77829 0.0669,-2.4561 -0.036,-4.91687 0.0401,-7.37426 -0.0546,-3.00924 0.005,-6.02601 0.0549,-9.03379 -0.0149,-3.18481 0.23875,-6.34797 0.80037,-9.47846 0.27619,-1.54348 0.97865,-3.10921 1.11805,-4.66366 0.18502,-2.06331 -0.2917,-4.18386 -0.1715,-6.2508 0.0146,-5.03397 0.37858,-9.90518 0.78273,-14.91605 0.55881,-5.34014 1.58441,-10.60455 2.02774,-15.93373 0.58699,-5.7732 1.64539,-11.53127 1.6179,-17.34223 0.0379,-5.92475 0.0121,-11.84937 0.0166,-17.77417 0.102,-7.14076 0.0933,-14.28135 0.1232,-21.4225 -0.0215,-8.2335 0.0916,-16.46714 -0.0161,-24.70081 -0.0593,-6.28972 -0.0401,-12.5814 -0.25927,-18.86844 0,0 26.49308,-24.10684 26.49308,-24.10684 z"
         id="path4166"
         style="opacity:0.98999999;fill:#fc0065;fill-opacity:1;stroke:none;stroke-width:5.5999999;stroke-linecap:round;stroke-linejoin:round;stroke-miterlimit:4;stroke-dasharray:none;stroke-opacity:1" />
    </g>
  </g>
</svg>
